<svg width="32" height="21" viewBox="0 0 32 21" fill="none" xmlns="http://www.w3.org/2000/svg">
<path d="M6.90303 12.144C6.07903 12.144 5.44703 11.912 5.00703 11.448C4.56703 10.976 4.34703 10.328 4.34703 9.504H5.36703C5.37503 9.976 5.49903 10.38 5.73903 10.716C5.97903 11.044 6.36303 11.208 6.89103 11.208C7.41903 11.208 7.79503 11.048 8.01903 10.728C8.25103 10.408 8.36703 10.008 8.36703 9.528V3.6H9.37503V9.528C9.37503 10.368 9.15903 11.016 8.72703 11.472C8.29503 11.92 7.68703 12.144 6.90303 12.144ZM13.0783 6.96L13.8823 3.6H15.1783L13.9903 6.96H13.0783ZM21.2577 12.144C20.4977 12.144 19.8817 11.968 19.4097 11.616C18.9457 11.256 18.6857 10.764 18.6297 10.14H19.6737C19.7217 10.468 19.8817 10.736 20.1537 10.944C20.4337 11.152 20.8097 11.256 21.2817 11.256C21.7297 11.256 22.0617 11.16 22.2777 10.968C22.5017 10.776 22.6137 10.556 22.6137 10.308C22.6137 9.972 22.4817 9.744 22.2177 9.624C21.9537 9.496 21.5577 9.4 21.0297 9.336C20.3977 9.264 19.8737 9.092 19.4577 8.82C19.0417 8.548 18.8337 8.14 18.8337 7.596C18.8337 7.108 19.0377 6.704 19.4457 6.384C19.8537 6.064 20.4097 5.904 21.1137 5.904C21.8097 5.904 22.3577 6.064 22.7577 6.384C23.1577 6.696 23.3857 7.144 23.4417 7.728H22.4457C22.4217 7.44 22.2817 7.212 22.0257 7.044C21.7777 6.868 21.4657 6.78 21.0897 6.78C20.6977 6.78 20.3937 6.856 20.1777 7.008C19.9617 7.152 19.8537 7.344 19.8537 7.584C19.8537 7.824 19.9737 8.024 20.2137 8.184C20.4617 8.336 20.8497 8.436 21.3777 8.484C21.7937 8.532 22.1737 8.612 22.5177 8.724C22.8617 8.836 23.1337 9.012 23.3337 9.252C23.5417 9.492 23.6457 9.828 23.6457 10.26C23.6537 10.62 23.5537 10.944 23.3457 11.232C23.1457 11.512 22.8657 11.736 22.5057 11.904C22.1457 12.064 21.7297 12.144 21.2577 12.144Z" fill="#D65780"/>
<path d="M3.46557 19.084C2.9849 19.084 2.61624 18.9487 2.35957 18.678C2.1029 18.4027 1.97457 18.0247 1.97457 17.544H2.56957C2.57424 17.8193 2.64657 18.055 2.78657 18.251C2.92657 18.4423 3.15057 18.538 3.45857 18.538C3.76657 18.538 3.9859 18.4447 4.11657 18.258C4.2519 18.0713 4.31957 17.838 4.31957 17.558V14.1H4.90757V17.558C4.90757 18.048 4.78157 18.426 4.52957 18.692C4.27757 18.9533 3.9229 19.084 3.46557 19.084ZM7.60684 19.084C7.28017 19.084 6.99084 19.0093 6.73884 18.86C6.48684 18.7107 6.2885 18.5007 6.14384 18.23C5.99917 17.9547 5.92684 17.6327 5.92684 17.264C5.92684 16.8953 5.99917 16.5757 6.14384 16.305C6.2885 16.0297 6.48684 15.8173 6.73884 15.668C6.99084 15.5187 7.28017 15.444 7.60684 15.444C7.9335 15.444 8.22284 15.5187 8.47484 15.668C8.72684 15.8173 8.92517 16.0297 9.06984 16.305C9.2145 16.5757 9.28684 16.8953 9.28684 17.264C9.28684 17.6327 9.2145 17.9547 9.06984 18.23C8.92517 18.5007 8.72684 18.7107 8.47484 18.86C8.22284 19.0093 7.9335 19.084 7.60684 19.084ZM7.60684 18.524C7.8075 18.524 7.9895 18.4797 8.15284 18.391C8.31617 18.3023 8.4445 18.1647 8.53784 17.978C8.63584 17.7913 8.68484 17.5533 8.68484 17.264C8.68484 16.9747 8.63584 16.7367 8.53784 16.55C8.4445 16.3633 8.31617 16.2257 8.15284 16.137C7.9895 16.0483 7.8075 16.004 7.60684 16.004C7.41084 16.004 7.23117 16.0483 7.06784 16.137C6.9045 16.2257 6.77384 16.3633 6.67584 16.55C6.57784 16.7367 6.52884 16.9747 6.52884 17.264C6.52884 17.698 6.63384 18.0177 6.84384 18.223C7.05384 18.4237 7.30817 18.524 7.60684 18.524ZM11.5591 19.084C11.1391 19.084 10.8218 18.958 10.6071 18.706C10.3924 18.454 10.2851 18.09 10.2851 17.614V15.528H10.8731V17.544C10.8731 17.852 10.9408 18.0947 11.0761 18.272C11.2161 18.4447 11.4261 18.531 11.7061 18.531C11.9861 18.531 12.2218 18.4377 12.4131 18.251C12.6044 18.0597 12.7001 17.7867 12.7001 17.432V15.528H13.2881V19H12.7981L12.7351 18.475H12.7001C12.6068 18.643 12.4598 18.7877 12.2591 18.909C12.0584 19.0257 11.8251 19.084 11.5591 19.084ZM14.4894 19V18.496H15.3784V16.207C15.3784 16.0903 15.3224 16.032 15.2104 16.032H14.5804V15.528H15.4274C15.5814 15.528 15.705 15.57 15.7984 15.654C15.8917 15.738 15.9384 15.8617 15.9384 16.025V16.172H15.9664C16.0224 15.9387 16.1274 15.759 16.2814 15.633C16.44 15.507 16.6594 15.444 16.9394 15.444H17.5764V16.067H16.8554C16.5707 16.067 16.3514 16.1627 16.1974 16.354C16.0434 16.5407 15.9664 16.781 15.9664 17.075V18.496H17.0584V19H14.4894ZM18.7146 19V15.528H19.2046L19.2676 16.053H19.3026C19.396 15.885 19.543 15.7427 19.7436 15.626C19.9443 15.5047 20.1753 15.444 20.4366 15.444C20.8613 15.444 21.1786 15.57 21.3886 15.822C21.6033 16.074 21.7106 16.438 21.7106 16.914V19H21.1226V16.984C21.1226 16.676 21.055 16.4357 20.9196 16.263C20.7843 16.0857 20.5743 15.997 20.2896 15.997C20.0143 15.997 19.781 16.0927 19.5896 16.284C19.3983 16.4707 19.3026 16.7413 19.3026 17.096V19H18.7146ZM24.1019 19.084C23.8266 19.084 23.5979 19.035 23.4159 18.937C23.2339 18.839 23.0986 18.7107 23.0099 18.552C22.9212 18.3887 22.8769 18.2113 22.8769 18.02C22.8769 17.6653 23.0052 17.397 23.2619 17.215C23.5232 17.0283 23.8709 16.935 24.3049 16.935H25.2569V16.865C25.2569 16.2583 24.9792 15.955 24.4239 15.955C24.1999 15.955 24.0109 16.004 23.8569 16.102C23.7076 16.2 23.6119 16.354 23.5699 16.564H22.9679C22.9912 16.3307 23.0682 16.13 23.1989 15.962C23.3342 15.794 23.5069 15.6657 23.7169 15.577C23.9269 15.4883 24.1626 15.444 24.4239 15.444C24.9186 15.444 25.2779 15.5747 25.5019 15.836C25.7306 16.0927 25.8449 16.4357 25.8449 16.865V19H25.3409L25.2919 18.461H25.2429C25.1402 18.629 25.0026 18.776 24.8299 18.902C24.6619 19.0233 24.4192 19.084 24.1019 19.084ZM24.2069 18.566C24.4309 18.566 24.6199 18.5123 24.7739 18.405C24.9326 18.2977 25.0516 18.1553 25.1309 17.978C25.2149 17.8007 25.2569 17.607 25.2569 17.397H24.3539C24.0366 17.397 23.8126 17.4507 23.6819 17.558C23.5559 17.6653 23.4929 17.8077 23.4929 17.985C23.4929 18.167 23.5536 18.3093 23.6749 18.412C23.7962 18.5147 23.9736 18.566 24.2069 18.566ZM27.0182 19V18.496H28.2012V14.639C28.2012 14.5223 28.1428 14.464 28.0262 14.464H27.1442V13.96H28.1662C28.3668 13.96 28.5208 14.0137 28.6282 14.121C28.7355 14.2283 28.7892 14.3823 28.7892 14.583V18.496H29.9722V19H27.0182Z" fill="#D65780"/>
</svg>
